<?xml version="1.0" encoding="UTF-8"?>
<svg width="40px" height="41px" viewBox="0 0 40 41" version="1.1" xmlns="http://www.w3.org/2000/svg" xmlns:xlink="http://www.w3.org/1999/xlink">
    <title>EEF78635-CD75-451C-8F8E-A99FAD037A4E</title>
    <g id="Page-1" stroke="none" stroke-width="1" fill="none" fill-rule="evenodd">
        <g id="09-Login-2" transform="translate(-1845.000000, -35.000000)">
            <g id="lan-tc" transform="translate(1845.000000, 35.000000)">
                <rect id="Rectangle" fill="#C77900" x="0" y="0" width="25" height="25"></rect>
                <path d="M12.9306641,18.7246094 L12.9306641,14.5273438 L17.859375,14.5273438 L17.859375,8.95605469 L12.9306641,8.95605469 L12.9306641,6.47460938 L12.1923828,6.47460938 L12.1923828,8.95605469 L7.23632812,8.95605469 L7.23632812,14.5273438 L12.1923828,14.5273438 L12.1923828,18.7246094 L12.9306641,18.7246094 Z M17.1074219,13.7753906 L12.9306641,13.7753906 L12.9306641,9.70117188 L17.1074219,9.70117188 L17.1074219,13.7753906 Z M12.1923828,13.7753906 L7.97460938,13.7753906 L7.97460938,9.70117188 L12.1923828,9.70117188 L12.1923828,13.7753906 Z" id="中" fill="#FFFFFF" fill-rule="nonzero"></path>
                <path d="M40,16 L40,41 L15,41 L15,16 L40,16 Z M39,17 L16,17 L16,40 L39,40 L39,17 Z" id="Rectangle" fill="#C77900" fill-rule="nonzero"></path>
                <path d="M24.885,34 L25.767,31.522 L30.163,31.522 C30.3123333,31.942 30.457,32.355 30.597,32.761 C30.737,33.167 30.8863333,33.58 31.045,34 L31.045,34 L32.529,34 C32.1556667,32.9733333 31.8056667,32.0236667 31.479,31.151 C31.1523333,30.2783333 30.8326667,29.45 30.52,28.666 C30.2073333,27.882 29.897,27.133 29.589,26.419 C29.281,25.705 28.959,24.998 28.623,24.298 L28.623,24.298 L27.377,24.298 C27.041,24.998 26.719,25.705 26.411,26.419 C26.103,27.133 25.7926667,27.882 25.48,28.666 C25.1673333,29.45 24.8476667,30.2783333 24.521,31.151 C24.1943333,32.0236667 23.8443333,32.9733333 23.471,34 L23.471,34 L24.885,34 Z M29.771,30.402 L26.159,30.402 C26.4483333,29.59 26.74,28.8036667 27.034,28.043 C27.328,27.2823333 27.6383333,26.552 27.965,25.852 C28.2823333,26.552 28.588,27.2823333 28.882,28.043 C29.176,28.8036667 29.4723333,29.59 29.771,30.402 L29.771,30.402 Z" id="A" fill="#C77900" fill-rule="nonzero"></path>
            </g>
        </g>
    </g>
</svg>